Coordinates
version=1
nRows=9
nColumns=36
inDegrees=yes

Units are S.I. units (second, meters, Newtons, ...)
If the header above contains a line with 'inDegrees', this indicates whether rotational values are in degrees (yes) or radians (no).

endheader
time	pelvis_tilt	pelvis_list	pelvis_rotation	pelvis_tx	pelvis_ty	pelvis_tz	hip_flexion_r	hip_adduction_r	hip_rotation_r	knee_angle_r	knee_angle_r_beta	ankle_angle_r	subtalar_angle_r	mtp_angle_r	hip_flexion_l	hip_adduction_l	hip_rotation_l	knee_angle_l	knee_angle_l_beta	ankle_angle_l	subtalar_angle_l	mtp_angle_l	lumbar_extension	lumbar_bending	lumbar_rotation	arm_flex_r	arm_add_r	arm_rot_r	elbow_flex_r	pro_sup_r	arm_flex_l	arm_add_l	arm_rot_l	elbow_flex_l	pro_sup_l
      1.54000000	     -2.80214233	     -1.48361071	      4.84804509	     -0.37387185	      0.85671010	     -0.57838444	     51.16649727	      2.35484487	     -1.09315776	     75.93881549	      1.32538236	     24.24139764	    -20.66745609	     -7.45383503	     52.38904006	     -1.97350042	      3.04121397	     75.67979282	      1.32086156	     25.71996706	    -10.56615871	     -7.45383503	    -21.14564774	      2.96128105	     -9.07130054	     23.55948959	    -24.56329136	     10.26502287	    109.99268703	    113.31688728	     -6.56816842	    -30.00332655	    -13.78019962	    114.86643109	    104.57562433
      1.55000000	     -3.67216085	     -1.55202067	      4.80840796	     -0.37316262	      0.85663857	     -0.57868523	     51.97711243	      2.40469876	     -0.97832520	     75.75464629	      1.32216800	     24.09982849	    -20.63077132	     -7.45422017	     53.18211290	     -2.00761261	      2.95674190	     75.46083900	      1.31704010	     25.64396182	    -10.41951511	     -7.45422017	    -21.07109249	      2.96486418	     -9.14910908	     23.46916724	    -24.02345052	      8.63489293	    110.32567835	    113.19006000	     -7.12692713	    -30.15870916	    -15.52247598	    115.26721199	    104.45460514
      1.56000000	     -4.28251862	     -1.53137702	      4.82848815	     -0.37241789	      0.85726986	     -0.57923370	     52.45894602	      2.37232881	     -0.81168073	     75.54967541	      1.31859058	     23.96666277	    -20.65291622	     -7.45455843	     53.60856648	     -1.84943847	      2.95485898	     75.16609438	      1.31189583	     25.58184350	    -10.39898229	     -7.45455843	    -21.28042857	      2.94425614	     -9.29905890	     23.11715834	    -23.48353368	      7.15668567	    110.51934586	    113.06718721	     -7.78492057	    -30.26883570	    -17.16740075	    115.23314272	    104.30169203
      1.57000000	     -4.98192883	     -1.47065200	      4.84797985	     -0.37171797	      0.85783118	     -0.57977767	     53.04902374	      2.31476985	     -0.62148444	     75.32783161	      1.31471868	     23.35254313	    -21.23277870	     -7.45882542	     54.11955059	     -1.63664253	      2.92717355	     74.83850454	      1.30617831	     25.34015144	    -10.61129099	     -7.45882542	    -21.47972017	      2.84312513	     -9.72287116	     22.65109031	    -22.69040683	      5.76698807	    110.54776675	    112.50368837	     -9.08653621	    -30.19296524	    -19.20098927	    115.54458015	    103.04136065
      1.58000000	     -5.62387821	     -1.46899096	      4.89531976	     -0.37095536	      0.85853588	     -0.58032783	     53.53573326	      2.27387315	     -0.48139211	     75.09112239	      1.31058732	     23.34285831	    -21.13026524	     -7.46205031	     54.56907652	     -1.43054142	      3.00784279	     74.50536187	      1.30036387	     25.09948029	    -10.82389806	     -7.46205031	    -21.68408360	      2.82659612	     -9.90761260	     21.71157961	    -21.95790279	      4.13887482	    110.55807109	    112.59132302	    -10.11457012	    -30.10279211	    -20.64381830	    114.97923475	    102.37907789
      1.59000000	     -6.34070521	     -1.51668045	      4.91161363	     -0.37015082	      0.85909381	     -0.58071990	     54.07891562	      2.30641187	     -0.34775414	     74.80749908	      1.30563716	     23.28916523	    -21.15010072	     -7.46497508	     55.10489708	     -1.25808999	      3.14084381	     74.19200460	      1.29489476	     24.92544098	    -11.05540872	     -7.46497508	    -21.81971018	      2.81572236	     -9.82545752	     20.28237785	    -21.37057081	      2.42806312	    110.64828698	    112.70061931	    -10.94341358	    -29.90003499	    -21.63268270	    114.08403488	    101.69236988
      1.60000000	     -7.15033862	     -1.59515291	      4.84890875	     -0.36944909	      0.85927747	     -0.58085212	     54.76434614	      2.45138562	     -0.16243645	     74.56487346	      1.30140255	     23.18609841	    -21.15774650	     -7.46915060	     55.77768175	     -1.15717250	      3.28565333	     73.94311028	      1.29055073	     24.71089121	    -11.29009358	     -7.46915060	    -21.84420560	      2.79761295	     -9.51567880	     18.65144379	    -20.78236036	      0.59108179	    110.69005566	    112.85961802	    -11.57319760	    -29.62373507	    -22.17482263	    112.85079929	    100.61899052
      1.61000000	     -8.03390727	     -1.70259659	      4.74354152	     -0.36875947	      0.85909341	     -0.58074651	     55.56299113	      2.65165827	     -0.01384472	     74.35763532	      1.29778556	     22.98144798	    -21.35124917	     -7.47307128	     56.56784800	     -1.13451883	      3.42077203	     73.76067962	      1.28736672	     24.56919444	    -11.45921670	     -7.47307128	    -21.78466850	      2.76677846	     -9.11320235	     16.93593103	    -20.12060357	     -1.33562504	    110.56789947	    112.96244028	    -12.24264036	    -29.28963855	    -22.46141836	    111.41944646	     99.07722724
      1.62000000	     -8.87821736	     -1.78377679	      4.64998022	     -0.36813251	      0.85877080	     -0.58085066	     56.34398090	      2.74019952	      0.04046134	     74.19205086	      1.29489557	     22.96148891	    -21.39810156	     -7.47599379	     57.33141348	     -1.09983806	      3.49008106	     73.59698808	      1.28450976	     24.46232347	    -11.66270883	     -7.47599379	    -21.78668777	      2.73050352	     -8.71484129	     15.22487123	    -19.36824586	     -3.20658796	    110.33328079	    112.21625301	    -12.76206439	    -28.82216426	    -22.57460341	    109.75805393	     97.58636106
